<?xml version="1.0" encoding="UTF-8"?>
<!DOCTYPE score-partwise PUBLIC "-//Recordare//DTD MusicXML 3.1 Partwise//EN" "http://www.musicxml.org/dtds/partwise.dtd">
<score-partwise version="3.1">
  <work>
    <work-title>MSC-123.xml</work-title>
    </work>
  <movement-title>MSC-123.xml</movement-title>
  <identification>
    <creator type="composer">Music21</creator>
    <encoding>
      <software>MuseScore 3.6.2</software>
      <encoding-date>2021-09-10</encoding-date>
      <supports element="accidental" type="yes"/>
      <supports element="beam" type="yes"/>
      <supports element="print" attribute="new-page" type="yes" value="yes"/>
      <supports element="print" attribute="new-system" type="yes" value="yes"/>
      <supports element="stem" type="yes"/>
      </encoding>
    </identification>
  <defaults>
    <scaling>
      <millimeters>7</millimeters>
      <tenths>40</tenths>
      </scaling>
    <page-layout>
      <page-height>1696.72</page-height>
      <page-width>1200.33</page-width>
      <page-margins type="both">
        <left-margin>57.1429</left-margin>
        <right-margin>57.1429</right-margin>
        <top-margin>57.1429</top-margin>
        <bottom-margin>114.286</bottom-margin>
        </page-margins>
      </page-layout>
    <word-font font-family="FreeSerif" font-size="10"/>
    <lyric-font font-family="FreeSerif" font-size="11"/>
    </defaults>
  <credit page="1">
    <credit-type>title</credit-type>
    <credit-words default-x="600.165" default-y="1640.16" justify="center" valign="top" font-family="Edwin" font-size="24">MSC-123.xml</credit-words>
    </credit>
  <credit page="1">
    <credit-type>composer</credit-type>
    <credit-words default-x="1143.19" default-y="1540.16" justify="right" valign="top" font-family="Edwin" font-size="12">Music21</credit-words>
    </credit>
  <part-list>
    <score-part id="P1">
      <part-name>MusicXML Part</part-name>
      <score-instrument id="P1-I1">
        <instrument-name>None</instrument-name>
        </score-instrument>
      <midi-device id="P1-I1" port="1"></midi-device>
      <midi-instrument id="P1-I1">
        <midi-channel>1</midi-channel>
        <midi-program>1</midi-program>
        <volume>78.7402</volume>
        <pan>0</pan>
        </midi-instrument>
      </score-part>
    </part-list>
  <part id="P1">
    <measure number="1" width="186.97">
      <print>
        <system-layout>
          <system-margins>
            <left-margin>50.00</left-margin>
            <right-margin>0.00</right-margin>
            </system-margins>
          <top-system-distance>170.00</top-system-distance>
          </system-layout>
        </print>
      <attributes>
        <divisions>6</divisions>
        <key>
          <fifths>1</fifths>
          <mode>minor</mode>
          </key>
        <time symbol="common">
          <beats>4</beats>
          <beat-type>4</beat-type>
          </time>
        <clef>
          <sign>G</sign>
          <line>2</line>
          </clef>
        </attributes>
      <direction placement="below">
        <direction-type>
          <dynamics default-x="6.50" default-y="-45.21" relative-y="-25.00">
            <p/>
            </dynamics>
          </direction-type>
        <sound dynamics="44.44"/>
        </direction>
      <note default-x="94.87" default-y="-40.00">
        <pitch>
          <step>E</step>
          <octave>4</octave>
          </pitch>
        <duration>3</duration>
        <voice>1</voice>
        <type>eighth</type>
        <stem>up</stem>
        <beam number="1">begin</beam>
        <notations>
          <slur type="start" placement="below" number="1"/>
          </notations>
        <lyric number="1" default-x="6.50" default-y="-70.77" relative-y="-30.00">
          <syllabic>single</syllabic>
          <text>^</text>
          </lyric>
        </note>
      <note default-x="140.02" default-y="-30.00">
        <pitch>
          <step>G</step>
          <octave>4</octave>
          </pitch>
        <duration>3</duration>
        <voice>1</voice>
        <type>eighth</type>
        <stem>up</stem>
        <beam number="1">end</beam>
        <notations>
          <slur type="stop" number="1"/>
          </notations>
        </note>
      </measure>
    <measure number="2" width="283.02">
      <note default-x="13.00" default-y="-20.00">
        <pitch>
          <step>B</step>
          <octave>4</octave>
          </pitch>
        <duration>6</duration>
        <voice>1</voice>
        <type>quarter</type>
        <stem>down</stem>
        </note>
      <note default-x="80.06" default-y="-20.00">
        <pitch>
          <step>B</step>
          <octave>4</octave>
          </pitch>
        <duration>6</duration>
        <voice>1</voice>
        <type>quarter</type>
        <stem>down</stem>
        </note>
      <note default-x="147.11" default-y="-20.00">
        <pitch>
          <step>B</step>
          <octave>4</octave>
          </pitch>
        <duration>6</duration>
        <voice>1</voice>
        <type>quarter</type>
        <stem>down</stem>
        </note>
      <direction placement="below">
        <direction-type>
          <wedge type="crescendo" number="1" default-y="-61.29"/>
          </direction-type>
        </direction>
      <note default-x="214.17" default-y="-15.00">
        <pitch>
          <step>C</step>
          <octave>5</octave>
          </pitch>
        <duration>6</duration>
        <voice>1</voice>
        <type>quarter</type>
        <stem>down</stem>
        <lyric number="1" default-x="6.50" default-y="-70.77" relative-y="-30.00">
          <syllabic>single</syllabic>
          <text>^</text>
          </lyric>
        <lyric number="2" default-x="-10.48" default-y="-94.96" relative-y="-30.00">
          <syllabic>single</syllabic>
          <text>3a</text>
          </lyric>
        <lyric number="3" default-x="6.50" default-y="-119.15" relative-y="-30.00">
          <syllabic>single</syllabic>
          <text>6</text>
          </lyric>
        </note>
      <direction placement="below">
        <direction-type>
          <wedge type="stop" number="1"/>
          </direction-type>
        </direction>
      </measure>
    <measure number="3" width="283.02">
      <direction placement="below">
        <direction-type>
          <wedge type="diminuendo" number="1" default-y="-61.29"/>
          </direction-type>
        </direction>
      <note default-x="13.00" default-y="-15.00">
        <pitch>
          <step>C</step>
          <octave>5</octave>
          </pitch>
        <duration>6</duration>
        <voice>1</voice>
        <type>quarter</type>
        <stem>down</stem>
        </note>
      <direction placement="below">
        <direction-type>
          <wedge type="stop" number="1"/>
          </direction-type>
        </direction>
      <note default-x="80.06" default-y="-20.00">
        <pitch>
          <step>B</step>
          <octave>4</octave>
          </pitch>
        <duration>6</duration>
        <voice>1</voice>
        <type>quarter</type>
        <stem>down</stem>
        </note>
      <note>
        <rest/>
        <duration>6</duration>
        <voice>1</voice>
        <type>quarter</type>
        </note>
      <direction placement="below">
        <direction-type>
          <wedge type="crescendo" number="1" default-y="-61.29"/>
          </direction-type>
        </direction>
      <note default-x="214.17" default-y="-15.00">
        <pitch>
          <step>C</step>
          <octave>5</octave>
          </pitch>
        <duration>6</duration>
        <voice>1</voice>
        <type>quarter</type>
        <stem>down</stem>
        <lyric number="1" default-x="6.50" default-y="-70.77" relative-y="-30.00">
          <syllabic>single</syllabic>
          <text>^</text>
          </lyric>
        <lyric number="2" default-x="-10.89" default-y="-94.96" relative-y="-30.00">
          <syllabic>single</syllabic>
          <text>2a</text>
          </lyric>
        <lyric number="3" default-x="-10.89" default-y="-119.15" relative-y="-30.00">
          <syllabic>single</syllabic>
          <text>2b</text>
          </lyric>
        </note>
      <direction placement="below">
        <direction-type>
          <wedge type="stop" number="1"/>
          </direction-type>
        </direction>
      </measure>
    <measure number="4" width="283.02">
      <direction placement="below">
        <direction-type>
          <wedge type="diminuendo" number="1" default-y="-61.29"/>
          </direction-type>
        </direction>
      <note default-x="13.00" default-y="-15.00">
        <pitch>
          <step>C</step>
          <octave>5</octave>
          </pitch>
        <duration>6</duration>
        <voice>1</voice>
        <type>quarter</type>
        <stem>down</stem>
        </note>
      <direction placement="below">
        <direction-type>
          <wedge type="stop" number="1"/>
          </direction-type>
        </direction>
      <note default-x="80.06" default-y="-20.00">
        <pitch>
          <step>B</step>
          <octave>4</octave>
          </pitch>
        <duration>6</duration>
        <voice>1</voice>
        <type>quarter</type>
        <stem>down</stem>
        </note>
      <note>
        <rest/>
        <duration>6</duration>
        <voice>1</voice>
        <type>quarter</type>
        </note>
      <direction placement="below">
        <direction-type>
          <wedge type="crescendo" number="1" default-y="-60.00"/>
          </direction-type>
        </direction>
      <note default-x="214.17" default-y="-5.00">
        <pitch>
          <step>E</step>
          <octave>5</octave>
          </pitch>
        <duration>6</duration>
        <voice>1</voice>
        <type>quarter</type>
        <stem>down</stem>
        <notations>
          <slur type="start" placement="above" number="1"/>
          </notations>
        <lyric number="1" default-x="6.50" default-y="-70.77" relative-y="-30.00">
          <syllabic>single</syllabic>
          <text>^</text>
          </lyric>
        <lyric number="2" default-x="-10.89" default-y="-94.96" relative-y="-30.00">
          <syllabic>single</syllabic>
          <text>2a</text>
          </lyric>
        <lyric number="3" default-x="-10.89" default-y="-119.15" relative-y="-30.00">
          <syllabic>single</syllabic>
          <text>2b</text>
          </lyric>
        <lyric number="4" default-x="-10.48" default-y="-143.34" relative-y="-30.00">
          <syllabic>single</syllabic>
          <text>3a</text>
          </lyric>
        <lyric number="5" default-x="-10.48" default-y="-167.53" relative-y="-30.00">
          <syllabic>single</syllabic>
          <text>3c</text>
          </lyric>
        <lyric number="6" default-x="6.50" default-y="-191.72" relative-y="-30.00">
          <syllabic>single</syllabic>
          <text>6</text>
          </lyric>
        </note>
      </measure>
    <measure number="5" width="409.18">
      <print new-system="yes">
        <system-layout>
          <system-margins>
            <left-margin>-0.00</left-margin>
            <right-margin>0.00</right-margin>
            </system-margins>
          <system-distance>207.67</system-distance>
          </system-layout>
        </print>
      <note default-x="78.35" default-y="-10.00">
        <pitch>
          <step>D</step>
          <octave>5</octave>
          </pitch>
        <duration>9</duration>
        <voice>1</voice>
        <type>quarter</type>
        <dot/>
        <stem>down</stem>
        <notations>
          <slur type="stop" number="1"/>
          </notations>
        </note>
      <note default-x="176.34" default-y="-15.00">
        <pitch>
          <step>C</step>
          <octave>5</octave>
          </pitch>
        <duration>3</duration>
        <voice>1</voice>
        <type>eighth</type>
        <stem>down</stem>
        </note>
      <direction placement="below">
        <direction-type>
          <wedge type="stop" number="1"/>
          </direction-type>
        </direction>
      <direction placement="below">
        <direction-type>
          <wedge type="diminuendo" number="1" default-y="-66.03"/>
          </direction-type>
        </direction>
      <note default-x="226.57" default-y="-20.00">
        <pitch>
          <step>B</step>
          <octave>4</octave>
          </pitch>
        <duration>6</duration>
        <voice>1</voice>
        <type>quarter</type>
        <stem>down</stem>
        </note>
      <note>
        <rest/>
        <duration>3</duration>
        <voice>1</voice>
        <type>eighth</type>
        </note>
      <direction placement="below">
        <direction-type>
          <wedge type="stop" number="1"/>
          </direction-type>
        </direction>
      <direction placement="below">
        <direction-type>
          <dynamics default-x="3.25" default-y="-46.03" relative-y="-25.00">
            <p/>
            </dynamics>
          </direction-type>
        <sound dynamics="44.44"/>
        </direction>
      <note default-x="357.16" default-y="-20.00">
        <pitch>
          <step>B</step>
          <octave>4</octave>
          </pitch>
        <duration>3</duration>
        <voice>1</voice>
        <type>eighth</type>
        <stem>down</stem>
        <lyric number="1" default-x="6.50" default-y="-71.59" relative-y="-30.00">
          <syllabic>single</syllabic>
          <text>^</text>
          </lyric>
        <lyric number="2" default-x="-10.89" default-y="-95.78" relative-y="-30.00">
          <syllabic>single</syllabic>
          <text>2a</text>
          </lyric>
        <lyric number="3" default-x="-10.89" default-y="-119.98" relative-y="-30.00">
          <syllabic>single</syllabic>
          <text>2b</text>
          </lyric>
        <lyric number="4" default-x="6.50" default-y="-144.17" relative-y="-30.00">
          <syllabic>single</syllabic>
          <text>6</text>
          </lyric>
        </note>
      </measure>
    <measure number="6" width="315.04">
      <direction placement="below">
        <direction-type>
          <wedge type="crescendo" number="1" default-y="-68.79"/>
          </direction-type>
        </direction>
      <note default-x="13.00" default-y="-25.00">
        <pitch>
          <step>A</step>
          <octave>4</octave>
          </pitch>
        <duration>6</duration>
        <voice>1</voice>
        <type>quarter</type>
        <stem>up</stem>
        </note>
      <note default-x="88.06" default-y="-25.00">
        <pitch>
          <step>A</step>
          <octave>4</octave>
          </pitch>
        <duration>6</duration>
        <voice>1</voice>
        <type>quarter</type>
        <stem>up</stem>
        </note>
      <note default-x="163.12" default-y="-25.00">
        <pitch>
          <step>A</step>
          <octave>4</octave>
          </pitch>
        <duration>6</duration>
        <voice>1</voice>
        <type>quarter</type>
        <stem>up</stem>
        </note>
      <note default-x="238.18" default-y="-25.00">
        <pitch>
          <step>A</step>
          <octave>4</octave>
          </pitch>
        <duration>6</duration>
        <voice>1</voice>
        <type>quarter</type>
        <stem>up</stem>
        <lyric number="1" default-x="6.50" default-y="-71.59" relative-y="-30.00">
          <syllabic>single</syllabic>
          <text>^</text>
          </lyric>
        <lyric number="2" default-x="6.50" default-y="-95.78" relative-y="-30.00">
          <syllabic>single</syllabic>
          <text>6</text>
          </lyric>
        </note>
      </measure>
    <measure number="7" width="361.83">
      <note default-x="13.00" default-y="-25.00">
        <pitch>
          <step>A</step>
          <octave>4</octave>
          </pitch>
        <duration>9</duration>
        <voice>1</voice>
        <type>quarter</type>
        <dot/>
        <stem>up</stem>
        <notations>
          <slur type="start" placement="above" number="1"/>
          </notations>
        </note>
      <note default-x="110.40" default-y="-20.00">
        <pitch>
          <step>B</step>
          <octave>4</octave>
          </pitch>
        <duration>3</duration>
        <voice>1</voice>
        <type>eighth</type>
        <stem>down</stem>
        <notations>
          <ornaments>
            <turn/>
            </ornaments>
          </notations>
        </note>
      <note default-x="160.33" default-y="-10.00">
        <pitch>
          <step>D</step>
          <octave>5</octave>
          </pitch>
        <duration>3</duration>
        <voice>1</voice>
        <type>eighth</type>
        <stem>down</stem>
        <beam number="1">begin</beam>
        </note>
      <note default-x="210.25" default-y="-15.00">
        <pitch>
          <step>C</step>
          <octave>5</octave>
          </pitch>
        <duration>3</duration>
        <voice>1</voice>
        <type>eighth</type>
        <stem>down</stem>
        <beam number="1">continue</beam>
        <notations>
          <slur type="stop" number="1"/>
          </notations>
        </note>
      <direction placement="below">
        <direction-type>
          <wedge type="stop" number="1"/>
          </direction-type>
        </direction>
      <note default-x="260.18" default-y="-20.00">
        <pitch>
          <step>B</step>
          <octave>4</octave>
          </pitch>
        <duration>3</duration>
        <voice>1</voice>
        <type>eighth</type>
        <stem>down</stem>
        <beam number="1">continue</beam>
        <notations>
          <slur type="start" placement="above" number="1"/>
          <technical>
            <up-bow/>
            </technical>
          </notations>
        </note>
      <direction placement="above">
        <direction-type>
          <words relative-y="10.00" font-style="italic" font-family="Times New Roman" font-size="10.8">dim.</words>
          </direction-type>
        </direction>
      <note default-x="310.10" default-y="-25.00">
        <pitch>
          <step>A</step>
          <octave>4</octave>
          </pitch>
        <duration>3</duration>
        <voice>1</voice>
        <type>eighth</type>
        <stem>down</stem>
        <beam number="1">end</beam>
        <notations>
          <slur type="stop" number="1"/>
          </notations>
        </note>
      </measure>
    <measure number="8" width="628.28">
      <print new-system="yes">
        <system-layout>
          <system-margins>
            <left-margin>-0.00</left-margin>
            <right-margin>0.00</right-margin>
            </system-margins>
          <system-distance>160.12</system-distance>
          </system-layout>
        </print>
      <note default-x="78.35" default-y="-25.00">
        <pitch>
          <step>A</step>
          <octave>4</octave>
          </pitch>
        <duration>3</duration>
        <voice>1</voice>
        <type>eighth</type>
        <stem>up</stem>
        <beam number="1">begin</beam>
        <notations>
          <slur type="start" placement="below" number="1"/>
          </notations>
        <lyric number="1" default-x="6.50" default-y="-72.88" relative-y="-30.00">
          <syllabic>single</syllabic>
          <text>^</text>
          </lyric>
        <lyric number="2" default-x="-10.89" default-y="-97.07" relative-y="-30.00">
          <syllabic>single</syllabic>
          <text>2a</text>
          </lyric>
        </note>
      <note default-x="157.51" default-y="-30.00">
        <pitch>
          <step>G</step>
          <octave>4</octave>
          </pitch>
        <duration>3</duration>
        <voice>1</voice>
        <type>eighth</type>
        <stem>up</stem>
        <beam number="1">end</beam>
        <notations>
          <slur type="stop" number="1"/>
          </notations>
        </note>
      <note default-x="236.67" default-y="-30.00">
        <pitch>
          <step>G</step>
          <octave>4</octave>
          </pitch>
        <duration>2</duration>
        <voice>1</voice>
        <type>eighth</type>
        <time-modification>
          <actual-notes>3</actual-notes>
          <normal-notes>2</normal-notes>
          </time-modification>
        <stem>up</stem>
        <beam number="1">begin</beam>
        <notations>
          <tuplet type="start" bracket="no"/>
          <slur type="start" placement="below" number="1"/>
          </notations>
        </note>
      <note default-x="295.26" default-y="-35.00">
        <pitch>
          <step>F</step>
          <alter>1</alter>
          <octave>4</octave>
          </pitch>
        <duration>2</duration>
        <voice>1</voice>
        <type>eighth</type>
        <time-modification>
          <actual-notes>3</actual-notes>
          <normal-notes>2</normal-notes>
          </time-modification>
        <stem>up</stem>
        <beam number="1">continue</beam>
        </note>
      <note default-x="353.85" default-y="-40.00">
        <pitch>
          <step>E</step>
          <octave>4</octave>
          </pitch>
        <duration>2</duration>
        <voice>1</voice>
        <type>eighth</type>
        <time-modification>
          <actual-notes>3</actual-notes>
          <normal-notes>2</normal-notes>
          </time-modification>
        <stem>up</stem>
        <beam number="1">end</beam>
        <notations>
          <tuplet type="stop"/>
          <slur type="stop" number="1"/>
          </notations>
        </note>
      <direction placement="below">
        <direction-type>
          <wedge type="crescendo" number="1" default-y="-71.53"/>
          </direction-type>
        </direction>
      <note default-x="412.44" default-y="-20.00">
        <pitch>
          <step>B</step>
          <octave>4</octave>
          </pitch>
        <duration>9</duration>
        <voice>1</voice>
        <type>quarter</type>
        <dot/>
        <stem>down</stem>
        <lyric number="1" default-x="6.50" default-y="-72.88" relative-y="-30.00">
          <syllabic>single</syllabic>
          <text>^</text>
          </lyric>
        <lyric number="2" default-x="-10.89" default-y="-97.07" relative-y="-30.00">
          <syllabic>single</syllabic>
          <text>2a</text>
          </lyric>
        <lyric number="3" default-x="-10.48" default-y="-121.27" relative-y="-30.00">
          <syllabic>single</syllabic>
          <text>3c</text>
          </lyric>
        </note>
      <direction placement="below">
        <direction-type>
          <wedge type="stop" number="1"/>
          </direction-type>
        </direction>
      <direction placement="below">
        <direction-type>
          <wedge type="diminuendo" number="1" default-y="-63.64"/>
          </direction-type>
        </direction>
      <note default-x="547.32" default-y="-45.00">
        <pitch>
          <step>D</step>
          <alter>1</alter>
          <octave>4</octave>
          </pitch>
        <duration>3</duration>
        <voice>1</voice>
        <type>eighth</type>
        <accidental>sharp</accidental>
        <stem>up</stem>
        </note>
      </measure>
    <measure number="9" width="457.77">
      <note default-x="13.00" default-y="-40.00">
        <pitch>
          <step>E</step>
          <octave>4</octave>
          </pitch>
        <duration>6</duration>
        <voice>1</voice>
        <type>quarter</type>
        <stem>up</stem>
        </note>
      <direction placement="below">
        <direction-type>
          <wedge type="stop" number="1"/>
          </direction-type>
        </direction>
      <note>
        <rest/>
        <duration>6</duration>
        <voice>1</voice>
        <type>quarter</type>
        </note>
      <note>
        <rest/>
        <duration>12</duration>
        <voice>1</voice>
        <type>half</type>
        </note>
      <barline location="right">
        <bar-style>light-heavy</bar-style>
        </barline>
      </measure>
    </part>
  </score-partwise>
