<?xml version="1.0" encoding="utf-8"?>
<!DOCTYPE score-partwise  PUBLIC "-//Recordare//DTD MusicXML 3.0 Partwise//EN" "http://www.musicxml.org/dtds/partwise.dtd">
<score-partwise version="3.0">
  <work>
    <work-title>MSC-208.xml</work-title>
  </work>
  <movement-title>MSC-208.xml</movement-title>
  <identification>
    <creator type="composer">Music21</creator>
    <encoding>
      <encoding-date>2021-09-10</encoding-date>
      <software>music21 v.6.7.1</software>
      <software>music21 v.6.7.1</software>
      <software>MuseScore 3.6.2</software>
      <supports attribute="new-system" element="print" type="yes" value="yes" />
      <supports attribute="new-page" element="print" type="yes" value="yes" />
    </encoding>
  </identification>
  <defaults>
    <scaling>
      <millimeters>7</millimeters>
      <tenths>40</tenths>
    </scaling>
    <page-layout>
      <page-height>1696.72</page-height>
      <page-width>1200.33</page-width>
      <page-margins>
        <left-margin>57.1429</left-margin>
        <right-margin>57.1429</right-margin>
        <top-margin>57.1429</top-margin>
        <bottom-margin>114.286</bottom-margin>
      </page-margins>
    </page-layout>
    <word-font font-family="FreeSerif" font-size="10" />
    <lyric-font font-family="FreeSerif" font-size="11" />
  </defaults>
  <credit page="1">
    <credit-words default-x="600.166" default-y="1639.58" font-size="24" justify="center" valign="top">MSC-208.xml</credit-words>
  </credit>
  <credit page="1">
    <credit-words default-x="1143.19" default-y="1539.58" font-size="12" justify="right" valign="bottom">Music21</credit-words>
  </credit>
  <part-list>
    <score-part id="P1">
      <part-name>MusicXML Part</part-name>
      <score-instrument id="I39de168709d4d5e6bd935c43a42d157a">
        <instrument-name>None</instrument-name>
      </score-instrument>
      <midi-instrument id="I39de168709d4d5e6bd935c43a42d157a">
        <midi-channel>1</midi-channel>
        <midi-program>1</midi-program>
      </midi-instrument>
    </score-part>
  </part-list>
  <!--=========================== Part 1 ===========================-->
  <part id="P1">
    <!--========================= Measure 1 ==========================-->
    <measure number="1" width="328.15">
      <print>
        <system-layout>
          <system-margins>
            <left-margin>0</left-margin>
            <right-margin>0</right-margin>
          </system-margins>
          <top-system-distance>170</top-system-distance>
        </system-layout>
      </print>
      <attributes>
        <divisions>10080</divisions>
        <key>
          <fifths>1</fifths>
          <mode>major</mode>
        </key>
        <time>
          <beats>3</beats>
          <beat-type>4</beat-type>
        </time>
        <clef>
          <sign>G</sign>
          <line>2</line>
        </clef>
      </attributes>
      <note default-x="89.1" default-y="5">
        <pitch>
          <step>G</step>
          <octave>5</octave>
        </pitch>
        <duration>10080</duration>
        <type>quarter</type>
        <stem>down</stem>
        <lyric default-x="6.58" default-y="-40" name="1" number="1" relative-y="-30">
          <syllabic>single</syllabic>
          <text>^</text>
        </lyric>
      </note>
      <note default-x="160.16" default-y="5">
        <pitch>
          <step>G</step>
          <octave>5</octave>
        </pitch>
        <duration>10080</duration>
        <type>quarter</type>
        <stem>down</stem>
      </note>
      <note default-x="231.23" default-y="10">
        <pitch>
          <step>A</step>
          <octave>5</octave>
        </pitch>
        <duration>7560</duration>
        <type>eighth</type>
        <dot />
        <stem>down</stem>
        <beam number="1">begin</beam>
      </note>
      <note default-x="294.25" default-y="15">
        <pitch>
          <step>B</step>
          <octave>5</octave>
        </pitch>
        <duration>2520</duration>
        <type>16th</type>
        <stem>down</stem>
        <beam number="1">end</beam>
        <beam number="2">backward hook</beam>
      </note>
    </measure>
    <!--========================= Measure 2 ==========================-->
    <measure number="2" width="222.48">
      <note default-x="13.8" default-y="10">
        <pitch>
          <step>A</step>
          <octave>5</octave>
        </pitch>
        <duration>5040</duration>
        <type>eighth</type>
        <stem>down</stem>
        <beam number="1">begin</beam>
      </note>
      <note default-x="63.1" default-y="0">
        <pitch>
          <step>F</step>
          <alter>1</alter>
          <octave>5</octave>
        </pitch>
        <duration>5040</duration>
        <type>eighth</type>
        <stem>down</stem>
        <beam number="1">end</beam>
      </note>
      <note default-x="112.05" default-y="-10">
        <pitch>
          <step>D</step>
          <octave>5</octave>
        </pitch>
        <duration>20160</duration>
        <type>half</type>
        <stem>down</stem>
      </note>
    </measure>
    <!--========================= Measure 3 ==========================-->
    <measure number="3" width="244.68">
      <note default-x="10" default-y="-30">
        <pitch>
          <step>G</step>
          <octave>4</octave>
        </pitch>
        <duration>10080</duration>
        <type>quarter</type>
        <stem>up</stem>
        <notations>
          <ornaments>
            <mordent />
          </ornaments>
        </notations>
        <lyric default-x="6.58" default-y="-40" name="1" number="1" relative-y="-30">
          <syllabic>single</syllabic>
          <text>^</text>
        </lyric>
        <lyric name="2" number="2">
          <syllabic>single</syllabic>
          <text>2b</text>
        </lyric>
        <lyric name="3" number="3">
          <syllabic>single</syllabic>
          <text>3a</text>
        </lyric>
      </note>
      <note default-x="85.96" default-y="-30">
        <pitch>
          <step>G</step>
          <octave>4</octave>
        </pitch>
        <duration>15120</duration>
        <type>quarter</type>
        <dot />
        <stem>up</stem>
      </note>
      <note default-x="174.03" default-y="-35">
        <pitch>
          <step>F</step>
          <alter>1</alter>
          <octave>4</octave>
        </pitch>
        <duration>2520</duration>
        <type>16th</type>
        <stem>up</stem>
        <beam number="1">begin</beam>
        <beam number="2">begin</beam>
      </note>
      <note default-x="208.56" default-y="-30">
        <pitch>
          <step>G</step>
          <octave>4</octave>
        </pitch>
        <duration>2520</duration>
        <type>16th</type>
        <stem>up</stem>
        <beam number="1">end</beam>
        <beam number="2">end</beam>
      </note>
    </measure>
    <!--========================= Measure 4 ==========================-->
    <measure number="4" width="290.74">
      <note default-x="10" default-y="-25">
        <pitch>
          <step>A</step>
          <octave>4</octave>
        </pitch>
        <duration>1260</duration>
        <type>32nd</type>
        <stem>up</stem>
        <beam number="1">begin</beam>
        <beam number="2">begin</beam>
        <beam number="3">begin</beam>
        <notations>
          <slur number="1" placement="below" type="start" />
        </notations>
      </note>
      <note default-x="36.33" default-y="-30">
        <pitch>
          <step>G</step>
          <octave>4</octave>
        </pitch>
        <duration>1260</duration>
        <type>32nd</type>
        <stem>up</stem>
        <beam number="1">continue</beam>
        <beam number="2">continue</beam>
        <beam number="3">end</beam>
      </note>
      <note default-x="62.67" default-y="-35">
        <pitch>
          <step>F</step>
          <alter>1</alter>
          <octave>4</octave>
        </pitch>
        <duration>2520</duration>
        <type>16th</type>
        <stem>up</stem>
        <beam number="1">continue</beam>
        <beam number="2">continue</beam>
        <notations>
          <slur number="1" type="stop" />
        </notations>
      </note>
      <note default-x="104.8" default-y="-30">
        <pitch>
          <step>G</step>
          <octave>4</octave>
        </pitch>
        <duration>1260</duration>
        <type>32nd</type>
        <stem>up</stem>
        <beam number="1">continue</beam>
        <beam number="2">continue</beam>
        <beam number="3">begin</beam>
        <notations>
          <slur number="2" placement="below" type="start" />
        </notations>
      </note>
      <note default-x="131.14" default-y="-35">
        <pitch>
          <step>F</step>
          <alter>1</alter>
          <octave>4</octave>
        </pitch>
        <duration>1260</duration>
        <type>32nd</type>
        <stem>up</stem>
        <beam number="1">continue</beam>
        <beam number="2">continue</beam>
        <beam number="3">end</beam>
      </note>
      <note default-x="157.47" default-y="-40">
        <pitch>
          <step>E</step>
          <octave>4</octave>
        </pitch>
        <duration>2520</duration>
        <type>16th</type>
        <stem>up</stem>
        <beam number="1">end</beam>
        <beam number="2">end</beam>
        <notations>
          <slur number="2" type="stop" />
        </notations>
      </note>
      <note default-x="199.24" default-y="-45">
        <pitch>
          <step>D</step>
          <octave>4</octave>
        </pitch>
        <duration>20160</duration>
        <type>half</type>
        <stem>up</stem>
      </note>
    </measure>
    <!--========================= Measure 5 ==========================-->
    <measure number="5" width="288.03">
      <print new-system="yes">
        <system-layout>
          <system-margins>
            <left-margin>0</left-margin>
            <right-margin>0</right-margin>
          </system-margins>
          <system-distance>150</system-distance>
        </system-layout>
      </print>
      <note default-x="78.04" default-y="-10">
        <pitch>
          <step>D</step>
          <octave>5</octave>
        </pitch>
        <duration>10080</duration>
        <type>quarter</type>
        <stem>down</stem>
        <lyric default-x="6.58" default-y="-40" name="1" number="1" relative-y="-30">
          <syllabic>single</syllabic>
          <text>^</text>
        </lyric>
        <lyric name="2" number="2">
          <syllabic>single</syllabic>
          <text>2b</text>
        </lyric>
        <lyric name="3" number="3">
          <syllabic>single</syllabic>
          <text>3a</text>
        </lyric>
        <lyric name="4" number="4">
          <syllabic>single</syllabic>
          <text>2a</text>
        </lyric>
      </note>
      <note default-x="140.41" default-y="-10">
        <pitch>
          <step>D</step>
          <octave>5</octave>
        </pitch>
        <duration>10080</duration>
        <type>quarter</type>
        <stem>down</stem>
      </note>
      <note default-x="202.77" default-y="-5">
        <pitch>
          <step>E</step>
          <octave>5</octave>
        </pitch>
        <duration>7560</duration>
        <type>eighth</type>
        <dot />
        <stem>down</stem>
        <beam number="1">begin</beam>
      </note>
      <note default-x="258.08" default-y="0">
        <pitch>
          <step>F</step>
          <alter>0</alter>
          <octave>5</octave>
        </pitch>
        <duration>2520</duration>
        <type>16th</type>
        <accidental>natural</accidental>
        <stem>down</stem>
        <beam number="1">end</beam>
        <beam number="2">backward hook</beam>
      </note>
    </measure>
    <!--========================= Measure 6 ==========================-->
    <measure number="6" width="223.7">
      <note default-x="10" default-y="-5">
        <pitch>
          <step>E</step>
          <octave>5</octave>
        </pitch>
        <duration>5040</duration>
        <type>eighth</type>
        <stem>down</stem>
        <beam number="1">begin</beam>
      </note>
      <note default-x="52.84" default-y="-15">
        <pitch>
          <step>C</step>
          <octave>5</octave>
        </pitch>
        <duration>5040</duration>
        <type>eighth</type>
        <stem>down</stem>
        <beam number="1">end</beam>
      </note>
      <note default-x="95.68" default-y="-25">
        <pitch>
          <step>A</step>
          <octave>4</octave>
        </pitch>
        <duration>15120</duration>
        <type>quarter</type>
        <dot />
        <stem>up</stem>
      </note>
      <note default-x="179.26" default-y="0">
        <pitch>
          <step>F</step>
          <alter>1</alter>
          <octave>5</octave>
        </pitch>
        <duration>5040</duration>
        <type>eighth</type>
        <accidental>sharp</accidental>
        <stem>down</stem>
        <notations>
          <ornaments>
            <turn placement="above" />
          </ornaments>
        </notations>
        <lyric default-x="6.58" default-y="-40" name="1" number="1" relative-y="-30">
          <syllabic>single</syllabic>
          <text>^</text>
        </lyric>
        <lyric name="2" number="2">
          <syllabic>single</syllabic>
          <text>2b</text>
        </lyric>
        <lyric name="3" number="3">
          <syllabic>single</syllabic>
          <text>3a</text>
        </lyric>
        <lyric name="4" number="4">
          <syllabic>single</syllabic>
          <text>2a</text>
        </lyric>
        <lyric name="5" number="5">
          <syllabic>single</syllabic>
          <text>6</text>
        </lyric>
      </note>
    </measure>
    <!--========================= Measure 7 ==========================-->
    <measure number="7" width="356.74">
      <note default-x="10" default-y="5">
        <pitch>
          <step>G</step>
          <octave>5</octave>
        </pitch>
        <duration>1260</duration>
        <type>32nd</type>
        <stem>down</stem>
        <beam number="1">begin</beam>
        <beam number="2">begin</beam>
        <beam number="3">forward hook</beam>
        <notations>
          <slur number="3" placement="above" type="start" />
        </notations>
      </note>
      <note default-x="31.63" default-y="0">
        <pitch>
          <step>F</step>
          <alter>1</alter>
          <octave>5</octave>
        </pitch>
        <duration>3780</duration>
        <type>16th</type>
        <dot />
        <stem>down</stem>
        <beam number="1">continue</beam>
        <beam number="2">continue</beam>
        <notations>
          <slur number="3" type="stop" />
        </notations>
      </note>
      <note default-x="73.84" default-y="10">
        <pitch>
          <step>A</step>
          <octave>5</octave>
        </pitch>
        <duration>1260</duration>
        <type>32nd</type>
        <stem>down</stem>
        <beam number="1">continue</beam>
        <beam number="2">continue</beam>
        <beam number="3">forward hook</beam>
        <notations>
          <slur number="4" placement="above" type="start" />
        </notations>
      </note>
      <note default-x="95.47" default-y="5">
        <pitch>
          <step>G</step>
          <octave>5</octave>
        </pitch>
        <duration>3780</duration>
        <type>16th</type>
        <dot />
        <stem>down</stem>
        <beam number="1">end</beam>
        <beam number="2">end</beam>
        <notations>
          <slur number="4" type="stop" />
        </notations>
      </note>
      <note default-x="137.67" default-y="0">
        <pitch>
          <step>F</step>
          <alter>1</alter>
          <octave>5</octave>
        </pitch>
        <duration>1260</duration>
        <type>32nd</type>
        <stem>down</stem>
        <beam number="1">begin</beam>
        <beam number="2">begin</beam>
        <beam number="3">forward hook</beam>
        <notations>
          <slur number="5" placement="above" type="start" />
        </notations>
      </note>
      <note default-x="159.31" default-y="-5">
        <pitch>
          <step>E</step>
          <octave>5</octave>
        </pitch>
        <duration>3780</duration>
        <type>16th</type>
        <dot />
        <stem>down</stem>
        <beam number="1">continue</beam>
        <beam number="2">continue</beam>
        <notations>
          <slur number="5" type="stop" />
        </notations>
      </note>
      <note default-x="201.51" default-y="-10">
        <pitch>
          <step>D</step>
          <octave>5</octave>
        </pitch>
        <duration>1260</duration>
        <type>32nd</type>
        <stem>down</stem>
        <beam number="1">continue</beam>
        <beam number="2">continue</beam>
        <beam number="3">forward hook</beam>
        <notations>
          <slur number="6" placement="above" type="start" />
        </notations>
      </note>
      <note default-x="223.14" default-y="-15">
        <pitch>
          <step>C</step>
          <octave>5</octave>
        </pitch>
        <duration>3780</duration>
        <type>16th</type>
        <dot />
        <stem>down</stem>
        <beam number="1">end</beam>
        <beam number="2">end</beam>
        <notations>
          <slur number="6" type="stop" />
        </notations>
      </note>
      <note default-x="265.35" default-y="10">
        <pitch>
          <step>A</step>
          <octave>5</octave>
        </pitch>
        <duration>7560</duration>
        <type>eighth</type>
        <dot />
        <stem>down</stem>
        <beam number="1">begin</beam>
      </note>
      <note default-x="320.53" default-y="-15">
        <pitch>
          <step>C</step>
          <octave>5</octave>
        </pitch>
        <duration>2520</duration>
        <type>16th</type>
        <stem>down</stem>
        <beam number="1">end</beam>
        <beam number="2">backward hook</beam>
      </note>
    </measure>
    <!--========================= Measure 8 ==========================-->
    <measure number="8" width="217.58">
      <note default-x="10" default-y="-20">
        <pitch>
          <step>B</step>
          <octave>4</octave>
        </pitch>
        <duration>1260</duration>
        <type>32nd</type>
        <stem>up</stem>
        <beam number="1">begin</beam>
        <beam number="2">begin</beam>
        <beam number="3">forward hook</beam>
      </note>
      <note default-x="33.04" default-y="-30">
        <pitch>
          <step>G</step>
          <octave>4</octave>
        </pitch>
        <duration>3780</duration>
        <type>16th</type>
        <dot />
        <stem>up</stem>
        <beam number="1">continue</beam>
        <beam number="2">end</beam>
      </note>
      <note default-x="77.98" default-y="-35">
        <pitch>
          <step>F</step>
          <alter>1</alter>
          <octave>4</octave>
        </pitch>
        <duration>5040</duration>
        <type>eighth</type>
        <stem>up</stem>
        <beam number="1">end</beam>
      </note>
      <note default-x="128.3" default-y="-30">
        <pitch>
          <step>G</step>
          <octave>4</octave>
        </pitch>
        <duration>20160</duration>
        <type>half</type>
        <stem>up</stem>
        <notations>
          <ornaments>
            <mordent />
          </ornaments>
        </notations>
      </note>
      <barline location="right">
        <bar-style>light-heavy</bar-style>
      </barline>
    </measure>
  </part>
</score-partwise>