<?xml version="1.0" encoding="utf-8"?>
<!DOCTYPE score-partwise  PUBLIC "-//Recordare//DTD MusicXML 3.0 Partwise//EN" "http://www.musicxml.org/dtds/partwise.dtd">
<score-partwise version="3.0">
  <work>
    <work-title>MSC-289.xml</work-title>
  </work>
  <movement-title>MSC-289.xml</movement-title>
  <identification>
    <creator type="composer">Music21</creator>
    <encoding>
      <encoding-date>2021-09-10</encoding-date>
      <software>music21 v.6.7.1</software>
      <software>music21 v.6.7.1</software>
      <software>MuseScore 3.6.2</software>
      <supports attribute="new-system" element="print" type="yes" value="yes" />
      <supports attribute="new-page" element="print" type="yes" value="yes" />
    </encoding>
  </identification>
  <defaults>
    <scaling>
      <millimeters>7</millimeters>
      <tenths>40</tenths>
    </scaling>
    <page-layout>
      <page-height>1696.72</page-height>
      <page-width>1200.33</page-width>
      <page-margins>
        <left-margin>57.1429</left-margin>
        <right-margin>57.1429</right-margin>
        <top-margin>57.1429</top-margin>
        <bottom-margin>114.286</bottom-margin>
      </page-margins>
    </page-layout>
    <word-font font-family="FreeSerif" font-size="10" />
    <lyric-font font-family="FreeSerif" font-size="11" />
  </defaults>
  <credit page="1">
    <credit-words default-x="600.166" default-y="1639.58" font-size="24" justify="center" valign="top">MSC-289.xml</credit-words>
  </credit>
  <credit page="1">
    <credit-words default-x="1143.19" default-y="1539.58" font-size="12" justify="right" valign="bottom">Music21</credit-words>
  </credit>
  <part-list>
    <score-part id="P1">
      <part-name>MusicXML Part</part-name>
      <score-instrument id="Ie71e32d4f28985af571be786090d2dae">
        <instrument-name>None</instrument-name>
      </score-instrument>
      <midi-instrument id="Ie71e32d4f28985af571be786090d2dae">
        <midi-channel>1</midi-channel>
        <midi-program>1</midi-program>
      </midi-instrument>
    </score-part>
  </part-list>
  <!--=========================== Part 1 ===========================-->
  <part id="P1">
    <!--========================= Measure 1 ==========================-->
    <measure number="1" width="182.89">
      <print>
        <system-layout>
          <system-margins>
            <left-margin>0</left-margin>
            <right-margin>0</right-margin>
          </system-margins>
          <top-system-distance>170</top-system-distance>
        </system-layout>
      </print>
      <attributes>
        <divisions>10080</divisions>
        <key>
          <fifths>1</fifths>
          <mode>major</mode>
        </key>
        <time>
          <beats>2</beats>
          <beat-type>4</beat-type>
        </time>
        <clef>
          <sign>G</sign>
          <line>2</line>
        </clef>
      </attributes>
      <direction placement="below">
        <direction-type>
          <dynamics default-x="-36" default-y="-80">
            <mf />
          </dynamics>
        </direction-type>
        <sound dynamics="69" />
      </direction>
      <note default-x="89.1" default-y="5">
        <pitch>
          <step>G</step>
          <octave>5</octave>
        </pitch>
        <duration>2520</duration>
        <type>16th</type>
        <stem>down</stem>
        <beam number="1">begin</beam>
        <beam number="2">begin</beam>
        <notations>
          <articulations>
            <staccato />
          </articulations>
        </notations>
        <lyric default-x="6.58" default-y="-80.35" name="1" number="1" relative-y="-30">
          <syllabic>single</syllabic>
          <text>^</text>
        </lyric>
      </note>
      <note default-x="106.83" default-y="-5">
        <pitch>
          <step>E</step>
          <octave>5</octave>
        </pitch>
        <duration>2520</duration>
        <type>16th</type>
        <stem>down</stem>
        <beam number="1">end</beam>
        <beam number="2">end</beam>
        <notations>
          <articulations>
            <staccato />
          </articulations>
        </notations>
      </note>
      <note default-x="124.55" default-y="5">
        <pitch>
          <step>G</step>
          <octave>5</octave>
        </pitch>
        <duration>5040</duration>
        <type>eighth</type>
        <stem>down</stem>
        <notations>
          <articulations>
            <staccato />
          </articulations>
        </notations>
      </note>
      <note default-x="152.92" default-y="0">
        <pitch>
          <step>F</step>
          <alter>1</alter>
          <octave>5</octave>
        </pitch>
        <duration>5040</duration>
        <type>eighth</type>
        <stem>down</stem>
        <notations>
          <articulations>
            <staccato />
          </articulations>
        </notations>
      </note>
    </measure>
    <!--========================= Measure 2 ==========================-->
    <measure number="2" width="147.7">
      <note default-x="17.23" default-y="-10">
        <pitch>
          <step>D</step>
          <alter>1</alter>
          <octave>5</octave>
        </pitch>
        <duration>5040</duration>
        <type>eighth</type>
        <accidental>sharp</accidental>
        <stem>down</stem>
        <beam number="1">begin</beam>
        <notations>
          <articulations>
            <staccato />
          </articulations>
        </notations>
      </note>
      <note default-x="47.55" default-y="-5">
        <pitch>
          <step>E</step>
          <octave>5</octave>
        </pitch>
        <duration>5040</duration>
        <type>eighth</type>
        <stem>down</stem>
        <beam number="1">end</beam>
        <notations>
          <articulations>
            <staccato />
          </articulations>
        </notations>
      </note>
      <note default-x="77.87" default-y="-10">
        <pitch>
          <step>D</step>
          <alter>0</alter>
          <octave>5</octave>
        </pitch>
        <duration>2520</duration>
        <type>16th</type>
        <accidental>natural</accidental>
        <stem>down</stem>
        <beam number="1">begin</beam>
        <beam number="2">begin</beam>
        <notations>
          <articulations>
            <staccato />
          </articulations>
        </notations>
        <lyric default-x="6.58" default-y="-80.35" name="1" number="1" relative-y="-30">
          <syllabic>single</syllabic>
          <text>^</text>
        </lyric>
        <lyric name="2" number="2">
          <syllabic>single</syllabic>
          <text>3a</text>
        </lyric>
        <lyric name="3" number="3">
          <syllabic>single</syllabic>
          <text>3d</text>
        </lyric>
      </note>
      <note default-x="96.82" default-y="-10">
        <pitch>
          <step>D</step>
          <octave>5</octave>
        </pitch>
        <duration>2520</duration>
        <type>16th</type>
        <stem>down</stem>
        <beam number="1">continue</beam>
        <beam number="2">end</beam>
        <notations>
          <articulations>
            <staccato />
          </articulations>
        </notations>
      </note>
      <note default-x="115.77" default-y="-10">
        <pitch>
          <step>D</step>
          <octave>5</octave>
        </pitch>
        <duration>5040</duration>
        <type>eighth</type>
        <stem>down</stem>
        <beam number="1">end</beam>
        <notations>
          <articulations>
            <staccato />
          </articulations>
        </notations>
      </note>
    </measure>
    <!--========================= Measure 3 ==========================-->
    <measure number="3" width="164.93">
      <note default-x="17.23" default-y="-15">
        <pitch>
          <step>C</step>
          <alter>1</alter>
          <octave>5</octave>
        </pitch>
        <duration>2520</duration>
        <type>16th</type>
        <accidental>sharp</accidental>
        <stem>down</stem>
        <beam number="1">begin</beam>
        <beam number="2">begin</beam>
        <notations>
          <articulations>
            <staccato />
          </articulations>
        </notations>
      </note>
      <note default-x="37.52" default-y="-15">
        <pitch>
          <step>C</step>
          <alter>1</alter>
          <octave>5</octave>
        </pitch>
        <duration>2520</duration>
        <type>16th</type>
        <stem>down</stem>
        <beam number="1">continue</beam>
        <beam number="2">end</beam>
        <notations>
          <articulations>
            <staccato />
          </articulations>
        </notations>
      </note>
      <note default-x="57.81" default-y="-15">
        <pitch>
          <step>C</step>
          <alter>1</alter>
          <octave>5</octave>
        </pitch>
        <duration>5040</duration>
        <type>eighth</type>
        <stem>down</stem>
        <beam number="1">end</beam>
        <notations>
          <articulations>
            <staccato />
          </articulations>
        </notations>
      </note>
      <note default-x="90.28" default-y="-15">
        <pitch>
          <step>C</step>
          <alter>0</alter>
          <octave>5</octave>
        </pitch>
        <duration>2520</duration>
        <type>16th</type>
        <accidental>natural</accidental>
        <stem>down</stem>
        <beam number="1">begin</beam>
        <beam number="2">begin</beam>
        <notations>
          <articulations>
            <staccato />
          </articulations>
        </notations>
      </note>
      <note default-x="110.57" default-y="-15">
        <pitch>
          <step>C</step>
          <octave>5</octave>
        </pitch>
        <duration>2520</duration>
        <type>16th</type>
        <stem>down</stem>
        <beam number="1">continue</beam>
        <beam number="2">end</beam>
        <notations>
          <articulations>
            <staccato />
          </articulations>
        </notations>
      </note>
      <note default-x="130.86" default-y="-15">
        <pitch>
          <step>C</step>
          <octave>5</octave>
        </pitch>
        <duration>5040</duration>
        <type>eighth</type>
        <stem>down</stem>
        <beam number="1">end</beam>
        <notations>
          <articulations>
            <staccato />
          </articulations>
        </notations>
      </note>
    </measure>
    <!--========================= Measure 4 ==========================-->
    <measure number="4" width="145.73">
      <note default-x="10" default-y="-20">
        <pitch>
          <step>B</step>
          <octave>4</octave>
        </pitch>
        <duration>2520</duration>
        <type>16th</type>
        <stem>down</stem>
        <beam number="1">begin</beam>
        <beam number="2">begin</beam>
        <notations>
          <articulations>
            <staccato />
          </articulations>
        </notations>
      </note>
      <note default-x="28.63" default-y="-5">
        <pitch>
          <step>E</step>
          <octave>5</octave>
        </pitch>
        <duration>2520</duration>
        <type>16th</type>
        <stem>down</stem>
        <beam number="1">continue</beam>
        <beam number="2">continue</beam>
        <notations>
          <articulations>
            <staccato />
          </articulations>
        </notations>
      </note>
      <note default-x="47.26" default-y="-15">
        <pitch>
          <step>C</step>
          <octave>5</octave>
        </pitch>
        <duration>2520</duration>
        <type>16th</type>
        <stem>down</stem>
        <beam number="1">continue</beam>
        <beam number="2">continue</beam>
        <notations>
          <articulations>
            <staccato />
          </articulations>
        </notations>
      </note>
      <note default-x="65.89" default-y="-5">
        <pitch>
          <step>E</step>
          <octave>5</octave>
        </pitch>
        <duration>2520</duration>
        <type>16th</type>
        <stem>down</stem>
        <beam number="1">end</beam>
        <beam number="2">end</beam>
        <notations>
          <articulations>
            <staccato />
          </articulations>
        </notations>
      </note>
      <note default-x="84.52" default-y="-20">
        <pitch>
          <step>B</step>
          <octave>4</octave>
        </pitch>
        <duration>5040</duration>
        <type>eighth</type>
        <stem>down</stem>
        <notations>
          <articulations>
            <staccato />
          </articulations>
        </notations>
      </note>
      <note>
        <rest />
        <duration>5040</duration>
        <type>eighth</type>
      </note>
    </measure>
    <!--========================= Measure 5 ==========================-->
    <measure number="5" width="159.79">
      <note>
        <rest />
        <duration>5040</duration>
        <type>eighth</type>
      </note>
      <note default-x="42.72" default-y="-5">
        <pitch>
          <step>E</step>
          <octave>5</octave>
        </pitch>
        <duration>2520</duration>
        <type>16th</type>
        <stem>down</stem>
        <beam number="1">begin</beam>
        <beam number="2">begin</beam>
        <notations>
          <articulations>
            <staccato />
          </articulations>
        </notations>
        <lyric default-x="6.58" default-y="-80.35" name="1" number="1" relative-y="-30">
          <syllabic>single</syllabic>
          <text>^</text>
        </lyric>
        <lyric name="2" number="2">
          <syllabic>single</syllabic>
          <text>2a</text>
        </lyric>
        <lyric name="3" number="3">
          <syllabic>single</syllabic>
          <text>2b</text>
        </lyric>
        <lyric name="4" number="4">
          <syllabic>single</syllabic>
          <text>6</text>
        </lyric>
      </note>
      <note default-x="72.62" default-y="-15">
        <pitch>
          <step>C</step>
          <alter>1</alter>
          <octave>5</octave>
        </pitch>
        <duration>2520</duration>
        <type>16th</type>
        <accidental>sharp</accidental>
        <stem>down</stem>
        <beam number="1">end</beam>
        <beam number="2">end</beam>
        <notations>
          <articulations>
            <staccato />
          </articulations>
        </notations>
      </note>
      <note default-x="92.99" default-y="-5">
        <pitch>
          <step>E</step>
          <octave>5</octave>
        </pitch>
        <duration>5040</duration>
        <type>eighth</type>
        <stem>down</stem>
        <beam number="1">begin</beam>
        <notations>
          <articulations>
            <staccato />
          </articulations>
        </notations>
      </note>
      <note default-x="125.59" default-y="-10">
        <pitch>
          <step>D</step>
          <alter>1</alter>
          <octave>5</octave>
        </pitch>
        <duration>5040</duration>
        <type>eighth</type>
        <accidental>sharp</accidental>
        <stem>down</stem>
        <beam number="1">end</beam>
        <notations>
          <articulations>
            <staccato />
          </articulations>
        </notations>
      </note>
    </measure>
    <!--========================= Measure 6 ==========================-->
    <measure number="6" width="150.34">
      <note>
        <rest />
        <duration>5040</duration>
        <type>eighth</type>
      </note>
      <note default-x="42.73" default-y="-10">
        <pitch>
          <step>D</step>
          <alter>0</alter>
          <octave>5</octave>
        </pitch>
        <duration>2520</duration>
        <type>16th</type>
        <accidental>natural</accidental>
        <stem>down</stem>
        <beam number="1">begin</beam>
        <beam number="2">begin</beam>
        <notations>
          <articulations>
            <staccato />
          </articulations>
        </notations>
        <lyric default-x="6.58" default-y="-80.35" name="1" number="1" relative-y="-30">
          <syllabic>single</syllabic>
          <text>^</text>
        </lyric>
        <lyric name="2" number="2">
          <syllabic>single</syllabic>
          <text>2a</text>
        </lyric>
        <lyric name="3" number="3">
          <syllabic>single</syllabic>
          <text>2b</text>
        </lyric>
        <lyric name="4" number="4">
          <syllabic>single</syllabic>
          <text>3d</text>
        </lyric>
        <lyric name="5" number="5">
          <syllabic>single</syllabic>
          <text>6</text>
        </lyric>
      </note>
      <note default-x="63.12" default-y="-20">
        <pitch>
          <step>B</step>
          <octave>4</octave>
        </pitch>
        <duration>2520</duration>
        <type>16th</type>
        <stem>down</stem>
        <beam number="1">end</beam>
        <beam number="2">end</beam>
        <notations>
          <articulations>
            <staccato />
          </articulations>
        </notations>
      </note>
      <note default-x="83.5" default-y="-10">
        <pitch>
          <step>D</step>
          <octave>5</octave>
        </pitch>
        <duration>5040</duration>
        <type>eighth</type>
        <stem>down</stem>
        <beam number="1">begin</beam>
        <notations>
          <articulations>
            <staccato />
          </articulations>
        </notations>
      </note>
      <note default-x="116.12" default-y="-15">
        <pitch>
          <step>C</step>
          <alter>1</alter>
          <octave>5</octave>
        </pitch>
        <duration>5040</duration>
        <type>eighth</type>
        <accidental>sharp</accidental>
        <stem>down</stem>
        <beam number="1">end</beam>
        <notations>
          <articulations>
            <staccato />
          </articulations>
        </notations>
      </note>
    </measure>
    <!--========================= Measure 7 ==========================-->
    <measure number="7" width="134.68">
      <note>
        <rest />
        <duration>5040</duration>
        <type>eighth</type>
      </note>
      <note default-x="39.05" default-y="-15">
        <pitch>
          <step>C</step>
          <alter>0</alter>
          <octave>5</octave>
        </pitch>
        <duration>2520</duration>
        <type>16th</type>
        <accidental>natural</accidental>
        <stem>down</stem>
        <beam number="1">begin</beam>
        <beam number="2">begin</beam>
        <notations>
          <articulations>
            <staccato />
          </articulations>
        </notations>
        <lyric default-x="6.58" default-y="-80.35" name="1" number="1" relative-y="-30">
          <syllabic>single</syllabic>
          <text>^</text>
        </lyric>
        <lyric name="2" number="2">
          <syllabic>single</syllabic>
          <text>2a</text>
        </lyric>
        <lyric name="3" number="3">
          <syllabic>single</syllabic>
          <text>2b</text>
        </lyric>
        <lyric name="4" number="4">
          <syllabic>single</syllabic>
          <text>3d</text>
        </lyric>
      </note>
      <note default-x="57.13" default-y="-25">
        <pitch>
          <step>A</step>
          <octave>4</octave>
        </pitch>
        <duration>2520</duration>
        <type>16th</type>
        <stem>down</stem>
        <beam number="1">end</beam>
        <beam number="2">end</beam>
        <notations>
          <articulations>
            <staccato />
          </articulations>
        </notations>
      </note>
      <note default-x="75.22" default-y="-15">
        <pitch>
          <step>C</step>
          <octave>5</octave>
        </pitch>
        <duration>5040</duration>
        <type>eighth</type>
        <stem>down</stem>
        <beam number="1">begin</beam>
        <notations>
          <articulations>
            <staccato />
          </articulations>
        </notations>
      </note>
      <note default-x="104.15" default-y="-20">
        <pitch>
          <step>B</step>
          <octave>4</octave>
        </pitch>
        <duration>5040</duration>
        <type>eighth</type>
        <stem>down</stem>
        <beam number="1">end</beam>
        <notations>
          <articulations>
            <staccato />
          </articulations>
        </notations>
      </note>
    </measure>
    <!--========================= Measure 8 ==========================-->
    <measure number="8" width="466.58">
      <print new-system="yes">
        <system-layout>
          <system-margins>
            <left-margin>0</left-margin>
            <right-margin>619.47</right-margin>
          </system-margins>
          <system-distance>150</system-distance>
        </system-layout>
      </print>
      <note>
        <rest />
        <duration>5040</duration>
        <type>eighth</type>
      </note>
      <direction placement="below">
        <direction-type>
          <dynamics default-x="-36" default-y="-80">
            <f />
          </dynamics>
        </direction-type>
        <sound dynamics="88" />
      </direction>
      <note default-x="156.57" default-y="-20">
        <pitch>
          <step>B</step>
          <octave>4</octave>
        </pitch>
        <duration>1260</duration>
        <type>32nd</type>
        <stem>down</stem>
        <beam number="1">begin</beam>
        <beam number="2">begin</beam>
        <beam number="3">begin</beam>
        <lyric default-x="6.58" default-y="-84.18" name="1" number="1" relative-y="-30">
          <syllabic>single</syllabic>
          <text>^</text>
        </lyric>
        <lyric name="2" number="2">
          <syllabic>single</syllabic>
          <text>2a</text>
        </lyric>
        <lyric name="3" number="3">
          <syllabic>single</syllabic>
          <text>2b</text>
        </lyric>
        <lyric name="4" number="4">
          <syllabic>single</syllabic>
          <text>3b</text>
        </lyric>
        <lyric name="5" number="5">
          <syllabic>single</syllabic>
          <text>3c</text>
        </lyric>
        <lyric name="6" number="6">
          <syllabic>single</syllabic>
          <text>3d</text>
        </lyric>
      </note>
      <note default-x="192.22" default-y="-10">
        <pitch>
          <step>D</step>
          <alter>1</alter>
          <octave>5</octave>
        </pitch>
        <duration>1260</duration>
        <type>32nd</type>
        <accidental>sharp</accidental>
        <stem>down</stem>
        <beam number="1">continue</beam>
        <beam number="2">continue</beam>
        <beam number="3">continue</beam>
      </note>
      <note default-x="227.86" default-y="0">
        <pitch>
          <step>F</step>
          <alter>1</alter>
          <octave>5</octave>
        </pitch>
        <duration>1260</duration>
        <type>32nd</type>
        <stem>down</stem>
        <beam number="1">continue</beam>
        <beam number="2">continue</beam>
        <beam number="3">continue</beam>
      </note>
      <note default-x="263.5" default-y="15">
        <pitch>
          <step>B</step>
          <octave>5</octave>
        </pitch>
        <duration>1260</duration>
        <type>32nd</type>
        <stem>down</stem>
        <beam number="1">end</beam>
        <beam number="2">end</beam>
        <beam number="3">end</beam>
      </note>
      <note default-x="299.15" default-y="-5">
        <pitch>
          <step>E</step>
          <octave>5</octave>
        </pitch>
        <duration>5040</duration>
        <type>eighth</type>
        <stem>down</stem>
      </note>
      <note>
        <rest />
        <duration>5040</duration>
        <type>eighth</type>
      </note>
      <barline location="right">
        <bar-style>light-heavy</bar-style>
      </barline>
    </measure>
  </part>
</score-partwise>